<!DOCTYPE svg PUBLIC "-//W3C//DTD SVG 20010904//EN" "http://www.w3.org/TR/2001/REC-SVG-20010904/DTD/svg10.dtd">
<svg version="1.0" xmlns="http://www.w3.org/2000/svg" width="310px" height="60px" viewBox="0 0 3100 600" preserveAspectRatio="xMidYMid meet">
<g id="layer101" fill="#edca62" stroke="none">
 <path d="M705 572 l-51 -3 3 -65 c1 -36 7 -72 14 -80 9 -11 8 -14 -5 -14 -9 0 -16 -4 -16 -10 0 -5 -6 -10 -14 -10 -19 0 -26 -22 -26 -81 0 -42 -3 -51 -22 -58 -20 -7 -23 -5 -26 21 -2 16 6 47 17 68 11 22 18 46 15 55 -9 21 -34 19 -34 -3 0 -10 -3 -21 -6 -25 -11 -11 -34 5 -34 25 0 13 -6 18 -17 16 -25 -5 -28 -46 -5 -66 14 -13 19 -33 21 -78 1 -36 -2 -65 -8 -69 -13 -7 -14 -74 -2 -93 5 -8 21 -12 37 -10 26 3 29 7 32 46 2 25 -2 50 -10 60 -11 14 -10 15 7 8 11 -5 30 -11 43 -13 12 -3 22 -9 22 -13 0 -5 9 -6 20 -3 26 7 26 -14 0 -42 -20 -21 -20 -22 -1 -43 10 -12 27 -22 37 -22 29 -1 55 -25 48 -44 -5 -13 0 -16 25 -16 24 0 31 4 31 20 0 11 7 20 15 20 8 0 32 16 52 36 36 34 37 36 19 49 -10 8 -22 12 -26 10 -4 -3 -10 4 -13 14 -3 13 0 18 12 16 9 -1 39 6 66 16 59 22 63 23 47 7 -14 -14 -16 -76 -3 -96 5 -8 21 -12 37 -10 28 3 29 5 27 53 -2 28 -5 79 -9 113 -5 57 -3 66 16 87 23 25 24 55 2 63 -7 2 -16 -5 -19 -17 -7 -26 -45 -30 -41 -4 2 10 -4 19 -14 21 -14 3 -18 -3 -18 -26 0 -17 6 -32 15 -36 11 -4 15 -20 15 -57 0 -51 0 -51 -22 -36 -18 12 -22 23 -21 52 4 53 -23 105 -53 105 -21 0 -23 3 -14 20 5 11 14 29 20 40 6 13 6 21 -1 26 -6 4 -8 20 -5 39 l7 33 -68 4 c-37 2 -91 2 -118 0z m81 -75 c-4 -19 0 -43 8 -59 l15 -28 -41 0 c-41 0 -41 0 -22 21 13 14 18 33 16 66 -1 25 1 50 5 56 11 18 25 -24 19 -56z"/>
 <path d="M1580 421 c0 -5 -9 -11 -21 -14 -15 -4 -20 -12 -17 -29 l3 -23 226 -3 c237 -3 259 1 243 42 -5 14 -31 16 -210 16 -129 0 -204 4 -204 10 0 6 -4 10 -10 10 -5 0 -10 -4 -10 -9z"/>
 <path d="M27 355 c-11 -106 -17 -103 194 -104 178 -2 198 -5 199 -33 0 -4 -87 -9 -193 -10 l-192 -3 0 -25 0 -25 208 -3 208 -4 30 31 c31 33 35 48 19 83 -19 41 -53 48 -226 48 l-163 0 -3 48 c-3 46 -4 47 -39 50 l-36 3 -6 -56z"/>
 <path d="M1170 401 c0 -6 -11 -11 -25 -11 -14 0 -25 -4 -25 -9 0 -5 -9 -11 -20 -14 -11 -3 -28 -24 -39 -48 -18 -40 -18 -45 -4 -73 29 -56 57 -70 171 -86 86 -12 152 -11 152 2 0 4 15 8 34 8 19 0 38 5 41 10 3 6 14 10 24 10 11 0 25 15 36 40 10 23 21 36 25 30 4 -7 83 -9 236 -8 l229 3 0 25 0 25 -229 3 c-165 2 -232 -1 -237 -9 -4 -7 -9 0 -13 18 -7 30 -46 61 -101 77 -46 14 -255 19 -255 7z m210 -61 c0 -5 11 -10 25 -10 27 0 40 -28 33 -71 -2 -19 -10 -25 -36 -27 -18 -2 -30 -8 -27 -13 9 -13 -159 -11 -188 2 -28 13 -51 54 -40 72 32 53 43 57 140 57 55 0 93 -4 93 -10z"/>
 <path d="M2035 398 c-2 -7 -3 -65 -2 -128 l2 -115 155 1 c160 1 250 10 250 25 0 5 5 9 11 9 34 0 61 70 57 151 l-3 64 -40 0 -40 0 -3 -65 c-3 -99 -8 -110 -42 -110 -17 0 -30 -4 -30 -10 0 -16 -226 -13 -229 3 -1 6 -3 46 -5 89 -2 42 -7 81 -10 87 -10 15 -66 14 -71 -1z"/>
 <path d="M2520 286 l0 -126 40 0 41 0 -3 123 -3 122 -37 3 -38 3 0 -125z"/>
 <path d="M2622 398 c3 -7 20 -21 39 -31 19 -11 36 -22 39 -26 3 -3 16 -12 29 -19 13 -8 40 -23 60 -34 20 -11 48 -29 63 -39 14 -11 31 -19 37 -19 6 0 11 -4 11 -10 0 -5 7 -10 15 -10 8 0 15 -4 15 -10 0 -5 7 -10 15 -10 8 0 15 -3 15 -8 0 -12 68 -30 96 -24 23 4 22 7 -28 40 -29 19 -54 39 -56 44 -2 4 -10 8 -17 8 -18 0 -91 39 -115 62 -10 10 -23 18 -29 18 -5 0 -11 3 -13 8 -1 4 -24 18 -50 31 -27 13 -48 28 -48 33 0 4 -18 8 -41 8 -27 0 -39 -4 -37 -12z"/>
 <path d="M2990 400 c0 -5 -7 -10 -15 -10 -8 0 -15 -4 -15 -10 0 -5 -7 -10 -15 -10 -9 0 -28 -11 -43 -25 -26 -25 -27 -26 -7 -38 28 -16 38 -15 56 5 9 10 21 18 28 18 6 0 11 5 11 10 0 6 9 10 20 10 11 0 20 5 20 10 0 6 11 15 25 22 13 6 22 15 19 19 -7 12 -84 11 -84 -1z"/>
 <path d="M2760 262 c0 -5 -21 -20 -47 -33 -27 -13 -57 -32 -67 -41 -11 -10 -24 -18 -28 -18 -5 0 -6 -4 -3 -10 11 -18 121 15 153 47 7 7 20 17 30 22 13 8 14 12 3 25 -14 17 -41 22 -41 8z"/>
 <path d="M1540 186 c0 -16 7 -26 23 -30 12 -3 112 -6 223 -6 210 0 243 6 228 43 -6 15 -28 17 -240 17 l-234 0 0 -24z"/>
 </g>

</svg>